<svg xmlns="http://www.w3.org/2000/svg" width="209.896" height="50.884" viewBox="0 0 209.896 50.884" fill="#19191E">
  <path d="M 16.384 0 L 23.23 0 L 23.23 15.439 C 23.23 19.9 19.648 23.528 15.243 23.528 L 0 23.528 L 0 16.594 L 11.543 16.594 L 3.311 8.257 L 8.152 3.353 L 16.384 11.691 L 16.384 0 Z M 68.8 19.665 C 70.17 20.99 72.011 21.651 74.319 21.651 L 74.319 21.65 C 76.627 21.65 78.408 21.01 79.661 19.732 C 80.915 18.453 81.541 16.7 81.541 14.471 L 81.541 14.088 L 78.35 14.088 L 78.35 14.554 C 78.35 15.76 78.02 16.752 77.362 17.527 C 76.703 18.303 75.653 18.692 74.319 18.692 C 72.985 18.692 71.934 18.272 71.168 17.432 C 70.402 16.593 70.018 15.451 70.018 14.008 L 70.018 9.35 C 70.018 7.89 70.4 6.743 71.168 5.912 C 71.934 5.081 72.949 4.665 74.319 4.665 C 75.688 4.665 76.703 5.054 77.362 5.829 C 78.02 6.607 78.35 7.597 78.35 8.803 L 78.35 9.05 L 81.541 9.05 L 81.541 8.886 C 81.541 6.657 80.915 4.903 79.661 3.625 C 78.408 2.346 76.627 1.707 74.319 1.707 C 72.011 1.707 70.17 2.37 68.8 3.694 C 67.431 5.017 66.745 6.921 66.745 9.406 L 66.745 13.953 C 66.745 16.436 67.429 18.341 68.8 19.665 Z M 85.072 5.446 C 85.477 5.821 85.959 6.007 86.519 6.007 C 87.114 6.007 87.606 5.821 87.993 5.446 C 88.38 5.073 88.574 4.573 88.574 3.953 C 88.574 3.333 88.38 2.835 87.993 2.46 C 87.606 2.087 87.114 1.899 86.519 1.899 C 85.961 1.899 85.478 2.085 85.072 2.46 C 84.666 2.835 84.463 3.333 84.463 3.953 C 84.463 4.573 84.666 5.071 85.072 5.446 Z M 84.977 7.733 L 84.977 21.268 L 88.088 21.268 L 88.088 7.733 L 84.977 7.733 Z M 95.256 21.268 L 90.874 7.733 L 94.174 7.733 L 97.475 18.967 L 97.936 18.967 L 101.262 7.733 L 104.563 7.733 L 100.18 21.268 L 95.257 21.268 L 95.256 21.268 Z M 107.442 5.446 C 107.846 5.821 108.329 6.007 108.889 6.007 C 109.484 6.007 109.975 5.821 110.363 5.446 C 110.75 5.073 110.944 4.573 110.944 3.953 C 110.944 3.333 110.75 2.835 110.363 2.46 C 109.975 2.087 109.484 1.899 108.889 1.899 C 108.331 1.899 107.848 2.085 107.442 2.46 C 107.036 2.835 106.833 3.333 106.833 3.953 C 106.833 4.573 107.036 5.071 107.442 5.446 Z M 107.347 7.733 L 107.347 21.268 L 110.458 21.268 L 110.458 7.733 L 107.347 7.733 Z M 120.926 21.651 C 119.628 21.651 118.455 21.377 117.409 20.829 C 116.363 20.281 115.538 19.487 114.934 18.445 C 114.33 17.403 114.028 16.152 114.028 14.691 L 114.028 14.307 C 114.028 12.845 114.33 11.595 114.934 10.553 C 115.538 9.511 116.363 8.718 117.409 8.169 C 118.455 7.621 119.626 7.346 120.926 7.346 C 122.226 7.346 123.302 7.574 124.213 8.03 C 125.124 8.486 125.859 9.112 126.417 9.907 C 126.977 10.701 127.337 11.591 127.499 12.578 L 124.497 13.208 C 124.425 12.642 124.253 12.127 123.983 11.66 C 123.712 11.194 123.33 10.824 122.833 10.551 C 122.337 10.276 121.728 10.14 121.008 10.14 C 120.288 10.14 119.606 10.301 119.019 10.618 C 118.432 10.938 117.974 11.418 117.639 12.058 C 117.305 12.697 117.139 13.464 117.139 14.359 L 117.139 14.634 C 117.139 15.528 117.307 16.29 117.639 16.921 C 117.974 17.552 118.432 18.03 119.019 18.36 C 119.604 18.688 120.268 18.853 121.008 18.853 C 122.108 18.853 122.943 18.564 123.511 17.989 C 124.079 17.413 124.435 16.669 124.578 15.757 L 127.581 16.468 C 127.364 17.419 126.977 18.286 126.417 19.072 C 125.858 19.858 125.123 20.484 124.213 20.948 C 123.302 21.415 122.207 21.646 120.926 21.646 L 120.926 21.651 Z M 141.62 5.076 L 141.62 21.268 L 141.622 21.27 L 144.868 21.27 L 144.868 5.078 L 150.521 5.078 L 150.521 2.091 L 135.967 2.091 L 135.967 5.076 L 141.62 5.076 Z M 156.959 21.651 C 155.623 21.651 154.448 21.363 153.428 20.788 C 152.409 20.212 151.616 19.4 151.046 18.35 C 150.478 17.299 150.193 16.071 150.193 14.665 L 150.193 14.336 C 150.193 12.911 150.473 11.679 151.033 10.637 C 151.592 9.596 152.377 8.789 153.387 8.213 C 154.396 7.638 155.56 7.35 156.877 7.35 C 158.194 7.35 159.311 7.638 160.285 8.213 C 161.259 8.789 162.016 9.597 162.557 10.637 C 163.098 11.679 163.369 12.894 163.369 14.281 L 163.369 15.404 L 153.334 15.404 C 153.37 16.463 153.74 17.313 154.442 17.952 C 155.145 18.592 156.012 18.911 157.039 18.911 C 158.066 18.911 158.797 18.688 159.284 18.239 C 159.77 17.792 160.14 17.286 160.392 16.719 L 162.963 18.061 C 162.711 18.554 162.346 19.079 161.868 19.637 C 161.39 20.195 160.754 20.668 159.961 21.062 C 159.168 21.454 158.166 21.651 156.959 21.651 Z M 153.361 13.022 L 160.205 13.022 C 160.133 12.127 159.794 11.415 159.19 10.884 C 158.586 10.354 157.805 10.09 156.849 10.09 C 155.894 10.09 155.063 10.354 154.468 10.884 C 153.873 11.415 153.503 12.127 153.359 13.022 L 153.361 13.022 Z M 169.564 20.829 C 170.61 21.377 171.783 21.651 173.082 21.651 L 173.082 21.646 C 174.363 21.646 175.458 21.415 176.369 20.948 C 177.278 20.484 178.013 19.858 178.573 19.072 C 179.132 18.286 179.519 17.419 179.736 16.468 L 176.734 15.757 C 176.59 16.669 176.234 17.413 175.666 17.989 C 175.098 18.564 174.264 18.853 173.163 18.853 C 172.423 18.853 171.76 18.688 171.174 18.36 C 170.588 18.03 170.129 17.552 169.794 16.921 C 169.462 16.29 169.295 15.528 169.295 14.634 L 169.295 14.359 C 169.295 13.464 169.46 12.697 169.794 12.058 C 170.129 11.418 170.588 10.938 171.174 10.618 C 171.761 10.301 172.444 10.14 173.163 10.14 C 173.883 10.14 174.492 10.276 174.989 10.551 C 175.485 10.824 175.867 11.194 176.138 11.66 C 176.408 12.127 176.58 12.642 176.652 13.208 L 179.654 12.578 C 179.492 11.591 179.132 10.701 178.573 9.907 C 178.015 9.112 177.28 8.486 176.369 8.03 C 175.458 7.574 174.381 7.346 173.082 7.346 C 171.782 7.346 170.61 7.621 169.564 8.169 C 168.518 8.718 167.693 9.511 167.089 10.553 C 166.485 11.595 166.183 12.845 166.183 14.307 L 166.183 14.691 C 166.183 16.152 166.485 17.403 167.089 18.445 C 167.693 19.487 168.518 20.281 169.564 20.829 Z M 183.035 21.268 L 183.035 2.091 L 186.146 2.091 L 186.146 9.516 L 186.607 9.516 C 186.75 9.205 186.986 8.896 187.31 8.585 C 187.634 8.274 188.062 8.018 188.594 7.818 C 189.127 7.617 189.799 7.517 190.609 7.517 C 191.637 7.517 192.547 7.75 193.342 8.215 C 194.135 8.682 194.752 9.335 195.194 10.174 C 195.636 11.014 195.856 12.011 195.856 13.162 L 195.856 21.271 L 192.745 21.271 L 192.745 13.409 C 192.745 12.313 192.478 11.496 191.946 10.957 C 191.414 10.418 190.662 10.148 189.688 10.148 C 188.588 10.148 187.723 10.518 187.092 11.258 C 186.46 11.997 186.145 13.053 186.145 14.423 L 186.145 21.273 L 183.033 21.273 L 183.035 21.268 Z M 67.204 31.321 L 67.204 50.5 L 70.477 50.5 L 70.477 42.391 L 78.322 42.391 L 78.322 39.378 L 70.477 39.378 L 70.477 34.309 L 78.998 34.309 L 78.998 31.321 L 67.204 31.321 Z M 83.597 35.24 C 83.037 35.24 82.554 35.053 82.15 34.678 C 81.744 34.303 81.541 33.806 81.541 33.186 C 81.541 32.565 81.744 32.068 82.15 31.693 C 82.556 31.318 83.039 31.131 83.597 31.131 C 84.192 31.131 84.683 31.32 85.071 31.693 C 85.458 32.068 85.652 32.565 85.652 33.186 C 85.652 33.806 85.458 34.305 85.071 34.678 C 84.683 35.053 84.192 35.24 83.597 35.24 Z M 82.055 50.5 L 82.055 36.966 L 85.166 36.966 L 85.166 50.5 L 82.055 50.5 Z M 91.969 50.02 C 92.989 50.595 94.164 50.884 95.5 50.884 C 96.708 50.884 97.709 50.687 98.502 50.295 C 99.295 49.901 99.932 49.428 100.409 48.869 C 100.887 48.311 101.252 47.786 101.504 47.294 L 98.934 45.951 C 98.681 46.518 98.311 47.024 97.825 47.472 C 97.339 47.921 96.607 48.144 95.58 48.144 C 94.553 48.144 93.687 47.824 92.984 47.185 C 92.281 46.546 91.911 45.696 91.875 44.637 L 101.91 44.637 L 101.91 43.514 C 101.91 42.126 101.639 40.912 101.098 39.87 C 100.558 38.83 99.8 38.021 98.826 37.446 C 97.852 36.871 96.735 36.582 95.418 36.582 C 94.101 36.582 92.938 36.871 91.928 37.446 C 90.918 38.021 90.133 38.828 89.574 39.87 C 89.014 40.912 88.735 42.144 88.735 43.569 L 88.735 43.897 C 88.735 45.304 89.02 46.532 89.588 47.582 C 90.157 48.633 90.951 49.445 91.969 50.02 Z M 98.746 42.254 L 91.902 42.254 L 91.901 42.254 C 92.044 41.359 92.414 40.647 93.009 40.117 C 93.605 39.587 94.436 39.322 95.391 39.322 C 96.346 39.322 97.127 39.587 97.731 40.117 C 98.335 40.647 98.674 41.359 98.746 42.254 Z M 105.373 50.5 L 105.373 31.321 L 108.485 31.321 L 108.485 50.5 L 105.373 50.5 Z M 115.137 50.075 C 116.074 50.614 117.085 50.884 118.167 50.884 L 118.168 50.881 C 119.431 50.881 120.396 50.656 121.063 50.208 C 121.73 49.761 122.226 49.263 122.55 48.716 L 123.011 48.716 L 123.011 50.497 L 126.041 50.497 L 126.041 31.318 L 122.956 31.318 L 122.956 38.661 L 122.496 38.661 C 122.296 38.294 122.022 37.957 121.67 37.646 C 121.319 37.335 120.853 37.08 120.277 36.879 C 119.7 36.679 118.996 36.579 118.167 36.579 C 117.066 36.579 116.051 36.848 115.123 37.387 C 114.195 37.926 113.452 38.716 112.892 39.758 C 112.333 40.799 112.053 42.05 112.053 43.512 L 112.053 43.951 C 112.053 45.412 112.333 46.663 112.892 47.705 C 113.45 48.747 114.199 49.536 115.137 50.075 Z M 121.872 47.035 C 121.133 47.774 120.203 48.144 119.086 48.144 C 117.969 48.144 117.036 47.774 116.287 47.035 C 115.538 46.294 115.164 45.24 115.164 43.87 L 115.164 43.595 C 115.164 42.206 115.538 41.147 116.287 40.416 C 117.034 39.687 117.95 39.321 119.086 39.321 C 120.222 39.321 121.155 39.685 121.885 40.416 C 122.615 41.147 122.98 42.208 122.98 43.595 L 122.98 43.87 C 122.98 45.24 122.61 46.295 121.872 47.035 Z M 143.892 50.884 C 142.556 50.884 141.362 50.587 140.308 49.994 C 139.254 49.402 138.415 48.533 137.792 47.391 C 137.169 46.249 136.859 44.847 136.859 43.185 L 136.859 38.638 C 136.859 36.154 137.545 34.25 138.914 32.926 C 140.284 31.603 142.125 30.94 144.433 30.94 C 146.741 30.94 148.518 31.565 149.762 32.816 C 151.005 34.067 151.628 35.753 151.628 37.871 L 151.628 37.98 L 148.436 37.98 L 148.436 37.76 C 148.436 37.03 148.291 36.373 148.003 35.787 C 147.715 35.203 147.273 34.742 146.678 34.404 C 146.082 34.065 145.333 33.897 144.433 33.897 C 143.097 33.897 142.048 34.314 141.282 35.145 C 140.514 35.976 140.132 37.123 140.132 38.583 L 140.132 43.241 C 140.132 44.683 140.516 45.834 141.282 46.693 C 142.048 47.551 143.117 47.98 144.487 47.98 C 145.857 47.98 146.858 47.605 147.489 46.857 C 148.121 46.109 148.436 45.15 148.436 43.98 L 148.436 43.652 L 143.648 43.652 L 143.648 40.856 L 151.628 40.856 L 151.628 50.5 L 148.653 50.5 L 148.653 48.61 L 148.192 48.61 C 148.047 48.939 147.822 49.282 147.517 49.638 C 147.21 49.994 146.773 50.291 146.205 50.528 C 145.637 50.765 144.866 50.884 143.892 50.884 Z M 157.958 50.022 C 158.751 50.487 159.662 50.72 160.691 50.72 L 160.691 50.718 C 161.934 50.718 162.867 50.49 163.49 50.034 C 164.111 49.576 164.539 49.101 164.774 48.609 L 165.235 48.609 L 165.235 50.499 L 168.264 50.499 L 168.264 36.964 L 165.18 36.964 L 165.18 43.814 C 165.18 45.184 164.86 46.235 164.22 46.966 C 163.58 47.696 162.71 48.061 161.61 48.061 C 160.636 48.061 159.884 47.797 159.352 47.266 C 158.819 46.738 158.553 45.924 158.553 44.828 L 158.553 36.966 L 155.469 36.966 L 155.469 45.075 C 155.469 46.209 155.687 47.199 156.119 48.049 C 156.551 48.899 157.165 49.555 157.958 50.022 Z M 174.027 35.24 C 173.467 35.24 172.985 35.053 172.58 34.678 C 172.174 34.303 171.971 33.806 171.971 33.186 C 171.971 32.565 172.174 32.068 172.58 31.693 C 172.986 31.318 173.469 31.131 174.027 31.131 C 174.622 31.131 175.114 31.32 175.501 31.693 C 175.888 32.068 176.082 32.565 176.082 33.186 C 176.082 33.806 175.888 34.305 175.501 34.678 C 175.114 35.053 174.622 35.24 174.027 35.24 Z M 172.485 50.5 L 172.485 36.966 L 175.596 36.966 L 175.596 50.5 L 172.485 50.5 Z M 182.251 50.075 C 183.187 50.614 184.199 50.884 185.28 50.884 L 185.282 50.881 C 186.544 50.881 187.51 50.656 188.177 50.208 C 188.844 49.761 189.34 49.263 189.664 48.716 L 190.125 48.716 L 190.125 50.497 L 193.154 50.497 L 193.154 31.318 L 190.07 31.318 L 190.07 38.661 L 189.609 38.661 C 189.41 38.294 189.135 37.957 188.784 37.646 C 188.432 37.335 187.967 37.08 187.39 36.879 C 186.814 36.679 186.109 36.579 185.28 36.579 C 184.18 36.579 183.165 36.848 182.237 37.387 C 181.309 37.926 180.565 38.716 180.006 39.758 C 179.446 40.799 179.166 42.05 179.166 43.512 L 179.166 43.951 C 179.166 45.412 179.446 46.663 180.006 47.705 C 180.564 48.747 181.312 49.536 182.251 50.075 Z M 188.985 47.035 C 188.246 47.774 187.317 48.144 186.2 48.144 C 185.082 48.144 184.149 47.774 183.4 47.035 C 182.651 46.294 182.278 45.24 182.278 43.87 L 182.278 43.595 C 182.278 42.206 182.651 41.147 183.4 40.416 C 184.147 39.687 185.063 39.321 186.2 39.321 C 187.336 39.321 188.269 39.685 188.999 40.416 C 189.729 41.147 190.094 42.208 190.094 43.595 L 190.094 43.87 C 190.094 45.24 189.724 46.295 188.985 47.035 Z M 203.486 50.884 C 202.15 50.884 200.975 50.595 199.955 50.02 C 198.937 49.445 198.143 48.633 197.574 47.582 C 197.006 46.532 196.721 45.304 196.721 43.897 L 196.721 43.569 C 196.721 42.144 197.001 40.912 197.56 39.87 C 198.12 38.828 198.904 38.021 199.914 37.446 C 200.924 36.871 202.087 36.582 203.404 36.582 C 204.721 36.582 205.838 36.871 206.812 37.446 C 207.786 38.021 208.544 38.83 209.084 39.87 C 209.625 40.912 209.896 42.126 209.896 43.514 L 209.896 44.637 L 199.861 44.637 C 199.897 45.696 200.267 46.546 200.97 47.185 C 201.673 47.824 202.539 48.144 203.566 48.144 C 204.593 48.144 205.325 47.921 205.811 47.472 C 206.297 47.024 206.667 46.518 206.92 45.951 L 209.49 47.294 C 209.238 47.786 208.873 48.311 208.395 48.869 C 207.918 49.428 207.281 49.901 206.488 50.295 C 205.695 50.687 204.694 50.884 203.486 50.884 Z M 199.888 42.254 L 206.732 42.254 C 206.661 41.359 206.321 40.647 205.717 40.117 C 205.113 39.587 204.332 39.322 203.377 39.322 C 202.422 39.322 201.591 39.587 200.996 40.117 C 200.4 40.647 200.03 41.359 199.887 42.254 L 199.888 42.254 Z M 0 26.781 L 0 33.714 L 11.543 33.714 L 3.352 42.012 L 8.193 46.915 L 16.384 38.617 L 16.384 50.309 L 23.23 50.309 L 23.23 34.87 C 23.23 30.409 19.648 26.781 15.243 26.781 L 0 26.781 Z M 49.673 23.528 L 49.673 16.594 L 38.13 16.594 L 46.321 8.296 L 41.48 3.393 L 33.289 11.691 L 33.289 0 L 26.443 0 L 26.443 15.439 C 26.443 19.9 30.026 23.528 34.43 23.528 L 49.673 23.528 Z" fill="currentColor" fill-rule="evenodd"></path>
</svg>