<svg xmlns="http://www.w3.org/2000/svg" width="261" height="323" viewBox="0 0 261 323" fill="#19191E">
  <path d="M 211.311 228.168 C 208.3 228.168 205.8 229.15 203.812 231.105 C 201.824 233.06 200.829 235.834 200.829 239.435 L 200.829 240.052 C 200.829 243.692 201.824 246.495 203.812 248.45 C 205.8 250.405 208.3 251.387 211.311 251.387 C 214.323 251.387 216.89 250.405 218.879 248.45 C 220.867 246.495 221.861 243.692 221.861 240.052 L 221.861 239.435 C 221.861 235.843 220.877 233.07 218.917 231.105 C 216.958 229.15 214.419 228.168 211.321 228.168 L 211.311 228.168 Z" fill="currentColor" fill-rule="nonzero"></path>
  <path d="M 201.573 293.646 C 198.561 293.646 196.061 294.628 194.073 296.583 C 192.085 298.538 191.09 301.312 191.09 304.914 L 191.09 305.53 C 191.09 309.17 192.085 311.973 194.073 313.928 C 196.061 315.883 198.561 316.865 201.573 316.865 C 204.584 316.865 207.151 315.883 209.14 313.928 C 211.128 311.973 212.122 309.17 212.122 305.53 L 212.122 304.914 C 212.122 301.322 211.138 298.548 209.178 296.583 C 207.219 294.628 204.681 293.646 201.582 293.646 L 201.573 293.646 Z" fill="currentColor" fill-rule="nonzero"></path>
  <path d="M 142.975 165.8 C 141.334 164.365 139.182 163.652 136.537 163.652 C 133.893 163.652 131.731 164.365 130.07 165.8 C 128.401 167.235 127.387 169.229 127.02 171.771 L 145.716 171.771 C 145.533 169.219 144.616 167.235 142.975 165.8 Z" fill="currentColor" fill-rule="nonzero"></path>
  <path d="M 159.413 230.315 C 157.772 228.88 155.619 228.168 152.975 228.168 C 150.33 228.168 148.168 228.88 146.508 230.315 C 144.838 231.75 143.825 233.744 143.458 236.286 L 162.154 236.286 C 161.97 233.734 161.063 231.75 159.413 230.315 Z" fill="currentColor" fill-rule="nonzero"></path>
  <path d="M 244.63 293.646 C 241.986 293.646 239.823 294.359 238.163 295.794 C 236.494 297.229 235.48 299.222 235.113 301.765 L 253.809 301.765 C 253.626 299.212 252.709 297.229 251.068 295.794 C 249.427 294.359 247.275 293.646 244.63 293.646 Z" fill="currentColor" fill-rule="nonzero"></path>
  <path d="M 54.968 81.215 C 54.968 70.823 46.494 62.377 36.07 62.377 L 0 62.377 L 0 78.528 L 27.325 78.528 L 7.944 97.847 L 19.401 109.269 L 38.782 89.95 L 38.782 117.175 L 54.978 117.175 L 54.978 81.215 L 54.968 81.215 Z" fill="currentColor" fill-rule="nonzero"></path>
  <path d="M 36.079 54.788 C 46.503 54.788 54.978 46.342 54.978 35.951 L 54.978 0 L 38.782 0 L 38.782 27.226 L 19.294 7.81 L 7.837 19.232 L 27.325 38.648 L 0 38.648 L 0 54.798 L 36.07 54.798 L 36.079 54.788 Z" fill="currentColor" fill-rule="nonzero"></path>
  <path d="M 109.618 19.329 L 98.161 7.907 L 78.78 27.226 L 78.78 0 L 62.584 0 L 62.584 35.961 C 62.584 46.352 71.058 54.798 81.482 54.798 L 117.552 54.798 L 117.552 38.648 L 90.227 38.648 L 109.608 19.329 L 109.618 19.329 Z" fill="currentColor" fill-rule="nonzero"></path>
  <path d="M 115.158 96.595 C 115.158 91.096 113.594 86.743 110.467 83.565 C 107.34 80.377 102.9 78.788 97.147 78.788 C 91.395 78.788 86.675 80.435 83.249 83.738 C 79.822 87.041 78.114 91.799 78.114 98.039 L 78.114 109.23 C 78.114 115.461 79.822 120.228 83.249 123.531 C 86.675 126.835 91.308 128.482 97.147 128.482 C 102.987 128.482 107.34 126.893 110.467 123.705 C 113.594 120.517 115.158 116.174 115.158 110.675 L 115.158 109.721 L 107.832 109.721 L 107.832 110.877 C 107.832 114.065 106.954 116.694 105.197 118.755 C 103.441 120.825 100.757 121.856 97.157 121.856 C 93.557 121.856 90.652 120.739 88.596 118.514 C 86.54 116.289 85.517 113.236 85.517 109.365 L 85.517 97.904 C 85.517 93.994 86.54 90.932 88.596 88.727 C 90.652 86.521 93.499 85.414 97.157 85.414 C 100.815 85.414 103.441 86.434 105.197 88.486 C 106.954 90.537 107.832 93.176 107.832 96.402 L 107.832 97.018 L 115.158 97.018 L 115.158 96.595 Z" fill="currentColor" fill-rule="nonzero"></path>
  <path d="M 130.64 93.869 L 123.584 93.869 L 123.584 127.509 L 130.64 127.509 L 130.64 93.869 Z" fill="currentColor" fill-rule="nonzero"></path>
  <path d="M 127.146 89.304 C 128.565 89.304 129.723 88.861 130.64 87.975 C 131.557 87.089 132.011 85.943 132.011 84.528 C 132.011 83.112 131.557 81.966 130.64 81.08 C 129.723 80.194 128.565 79.751 127.146 79.751 C 125.727 79.751 124.627 80.194 123.69 81.08 C 122.754 81.966 122.291 83.112 122.291 84.528 C 122.291 85.943 122.754 87.089 123.69 87.975 C 124.627 88.861 125.775 89.304 127.146 89.304 Z" fill="currentColor" fill-rule="nonzero"></path>
  <path d="M 160.146 127.518 L 171.507 93.869 L 164.046 93.869 L 155.079 122.328 L 153.979 122.328 L 145.012 93.869 L 137.551 93.869 L 148.911 127.518 L 160.146 127.518 Z" fill="currentColor" fill-rule="nonzero"></path>
  <path d="M 181.921 89.304 C 183.34 89.304 184.498 88.861 185.415 87.975 C 186.332 87.089 186.786 85.943 186.786 84.528 C 186.786 83.112 186.332 81.966 185.415 81.08 C 184.498 80.194 183.34 79.751 181.921 79.751 C 180.502 79.751 179.402 80.194 178.466 81.08 C 177.529 81.966 177.066 83.112 177.066 84.528 C 177.066 85.943 177.529 87.089 178.466 87.975 C 179.402 88.861 180.55 89.304 181.921 89.304 Z" fill="currentColor" fill-rule="nonzero"></path>
  <path d="M 185.415 93.869 L 178.359 93.869 L 178.359 127.509 L 185.415 127.509 L 185.415 93.869 Z" fill="currentColor" fill-rule="nonzero"></path>
  <path d="M 202.769 126.421 C 205.395 127.788 208.329 128.472 211.572 128.472 C 214.815 128.472 217.576 127.894 219.853 126.729 C 222.131 125.573 223.975 124.013 225.365 122.058 C 226.755 120.103 227.73 117.965 228.27 115.644 L 221.427 114.074 C 221.012 116.443 220.037 118.389 218.483 119.91 C 216.929 121.432 214.67 122.193 211.707 122.193 C 209.748 122.193 207.972 121.759 206.399 120.893 C 204.825 120.026 203.58 118.755 202.663 117.069 C 201.746 115.384 201.293 113.362 201.293 110.992 L 201.293 110.376 C 201.293 108.007 201.746 105.994 202.663 104.338 C 203.58 102.681 204.816 101.4 206.399 100.514 C 207.972 99.628 209.738 99.185 211.707 99.185 C 213.676 99.185 215.385 99.551 216.707 100.274 C 218.029 101.006 219.062 101.978 219.786 103.211 C 220.519 104.434 220.992 105.802 221.224 107.304 L 228.067 105.869 C 227.652 103.5 226.755 101.343 225.365 99.388 C 223.975 97.433 222.131 95.863 219.853 94.678 C 217.566 93.494 214.805 92.906 211.572 92.906 C 208.339 92.906 205.395 93.6 202.769 94.986 C 200.144 96.373 198.069 98.357 196.534 100.919 C 195 103.49 194.237 106.591 194.237 110.232 L 194.237 111.118 C 194.237 114.758 195 117.878 196.534 120.469 C 198.059 123.06 200.144 125.043 202.769 126.401 L 202.769 126.421 Z" fill="currentColor" fill-rule="nonzero"></path>
  <path d="M 77.66 150.959 L 92.379 150.959 L 92.379 192.034 L 99.773 192.034 L 99.773 150.959 L 114.492 150.959 L 114.492 144.266 L 77.66 144.266 L 77.66 150.959 Z" fill="currentColor" fill-rule="nonzero"></path>
  <path d="M 127.918 190.84 C 130.476 192.275 133.468 192.987 136.885 192.987 C 139.944 192.987 142.454 192.506 144.413 191.552 C 146.373 190.599 147.965 189.414 149.172 188.008 C 150.378 186.602 151.305 185.254 151.942 183.983 L 146.122 180.978 C 145.388 182.528 144.355 183.886 143.004 185.071 C 141.653 186.255 139.665 186.843 137.01 186.843 C 134.182 186.843 131.817 185.966 129.926 184.214 C 128.034 182.461 127.04 180.111 126.943 177.154 L 152.897 177.154 L 152.897 174.496 C 152.897 171.087 152.212 168.102 150.842 165.559 C 149.471 163.007 147.57 161.023 145.128 159.588 C 142.686 158.153 139.848 157.441 136.605 157.441 C 133.362 157.441 130.341 158.153 127.802 159.588 C 125.273 161.023 123.295 163.046 121.876 165.665 C 120.457 168.285 119.752 171.338 119.752 174.843 L 119.752 175.662 C 119.752 179.119 120.476 182.153 121.905 184.772 C 123.343 187.392 125.341 189.414 127.899 190.849 L 127.918 190.84 Z M 130.07 165.79 C 131.74 164.355 133.893 163.643 136.537 163.643 C 139.182 163.643 141.334 164.355 142.975 165.79 C 144.616 167.225 145.533 169.219 145.716 171.761 L 127.02 171.761 C 127.387 169.209 128.401 167.225 130.07 165.79 Z" fill="currentColor" fill-rule="nonzero"></path>
  <path d="M 190.868 186.583 C 192.258 184.628 193.233 182.49 193.774 180.169 L 186.93 178.599 C 186.515 180.968 185.541 182.914 183.987 184.435 C 182.433 185.957 180.174 186.718 177.211 186.718 C 175.252 186.718 173.476 186.284 171.902 185.418 C 170.329 184.551 169.084 183.28 168.167 181.594 C 167.25 179.909 166.796 177.886 166.796 175.517 L 166.796 174.901 C 166.796 172.532 167.25 170.519 168.167 168.863 C 169.084 167.206 170.319 165.925 171.902 165.039 C 173.476 164.153 175.242 163.71 177.211 163.71 C 179.18 163.71 180.888 164.076 182.211 164.798 C 183.533 165.53 184.556 166.503 185.29 167.736 C 186.023 168.959 186.496 170.326 186.728 171.829 L 193.571 170.394 C 193.156 168.025 192.258 165.867 190.868 163.912 C 189.479 161.957 187.635 160.388 185.357 159.203 C 183.07 158.019 180.309 157.431 177.076 157.431 C 173.842 157.431 170.898 158.124 168.273 159.511 C 165.648 160.898 163.573 162.882 162.038 165.444 C 160.513 168.015 159.741 171.116 159.741 174.756 L 159.741 175.643 C 159.741 179.283 160.503 182.403 162.038 184.994 C 163.563 187.584 165.648 189.568 168.273 190.926 C 170.898 192.294 173.833 192.978 177.076 192.978 C 180.319 192.978 183.079 192.4 185.357 191.234 C 187.635 190.079 189.479 188.519 190.868 186.564 L 190.868 186.583 Z" fill="currentColor" fill-rule="nonzero"></path>
  <path d="M 220.693 157.845 C 218.55 157.845 216.774 158.105 215.385 158.625 C 213.995 159.145 212.875 159.819 212.026 160.638 C 211.176 161.457 210.53 162.295 210.076 163.161 L 208.985 163.161 L 208.985 144.256 L 201.93 144.256 L 201.93 192.024 L 208.985 192.024 L 208.985 175.036 C 208.985 171.395 209.864 168.622 211.62 166.705 C 213.377 164.798 215.713 163.835 218.637 163.835 C 221.195 163.835 223.203 164.529 224.66 165.916 C 226.118 167.302 226.851 169.45 226.851 172.368 L 226.851 192.024 L 233.907 192.024 L 233.907 171.819 C 233.907 168.911 233.337 166.416 232.198 164.346 C 231.059 162.275 229.496 160.677 227.508 159.531 C 225.519 158.394 223.251 157.826 220.693 157.826 L 220.693 157.845 Z" fill="currentColor" fill-rule="nonzero"></path>
  <path d="M 112.929 215.475 L 112.929 208.791 L 83.345 208.791 L 83.345 256.559 L 90.748 256.559 L 90.748 235.949 L 111.143 235.949 L 111.143 229.266 L 90.748 229.266 L 90.748 215.475 L 112.929 215.475 Z" fill="currentColor" fill-rule="nonzero"></path>
  <path d="M 123.884 218.344 C 125.302 218.344 126.461 217.901 127.378 217.015 C 128.295 216.129 128.748 214.983 128.748 213.568 C 128.748 212.152 128.295 211.006 127.378 210.12 C 126.461 209.234 125.302 208.791 123.884 208.791 C 122.465 208.791 121.364 209.234 120.428 210.12 C 119.492 211.006 119.029 212.152 119.029 213.568 C 119.029 214.983 119.492 216.129 120.428 217.015 C 121.364 217.901 122.513 218.344 123.884 218.344 Z" fill="currentColor" fill-rule="nonzero"></path>
  <path d="M 127.378 222.919 L 120.322 222.919 L 120.322 256.559 L 127.378 256.559 L 127.378 222.919 Z" fill="currentColor" fill-rule="nonzero"></path>
  <path d="M 162.569 245.503 C 161.835 247.053 160.802 248.411 159.451 249.596 C 158.1 250.78 156.112 251.368 153.457 251.368 C 150.629 251.368 148.265 250.491 146.373 248.739 C 144.481 246.986 143.487 244.636 143.39 241.679 L 169.345 241.679 L 169.345 239.021 C 169.345 235.612 168.659 232.627 167.289 230.084 C 165.918 227.532 164.017 225.548 161.575 224.113 C 159.133 222.678 156.295 221.966 153.052 221.966 C 149.809 221.966 146.788 222.678 144.249 224.113 C 141.72 225.548 139.742 227.571 138.323 230.19 C 136.904 232.81 136.2 235.863 136.2 239.368 L 136.2 240.187 C 136.2 243.644 136.914 246.678 138.352 249.297 C 139.79 251.917 141.788 253.939 144.346 255.374 C 146.904 256.809 149.896 257.522 153.313 257.522 C 156.372 257.522 158.882 257.04 160.841 256.087 C 162.8 255.133 164.393 253.949 165.6 252.543 C 166.806 251.137 167.733 249.788 168.37 248.517 L 162.549 245.512 L 162.569 245.503 Z M 146.518 230.315 C 148.187 228.88 150.34 228.168 152.984 228.168 C 155.629 228.168 157.781 228.88 159.422 230.315 C 161.063 231.75 161.98 233.744 162.163 236.286 L 143.467 236.286 C 143.834 233.734 144.848 231.75 146.518 230.315 Z" fill="currentColor" fill-rule="nonzero"></path>
  <path d="M 184.894 208.791 L 177.838 208.791 L 177.838 256.559 L 184.894 256.559 L 184.894 208.791 Z" fill="currentColor" fill-rule="nonzero"></path>
  <path d="M 228.839 256.559 L 228.839 208.791 L 221.784 208.791 L 221.784 227.494 L 220.684 227.494 C 220.182 226.588 219.448 225.712 218.493 224.864 C 217.537 224.027 216.311 223.333 214.825 222.784 C 213.338 222.235 211.504 221.966 209.313 221.966 C 206.485 221.966 203.879 222.649 201.505 224.017 C 199.131 225.384 197.239 227.359 195.82 229.949 C 194.401 232.54 193.697 235.641 193.697 239.233 L 193.697 240.254 C 193.697 243.894 194.411 246.995 195.849 249.567 C 197.287 252.138 199.189 254.103 201.563 255.47 C 203.937 256.838 206.514 257.522 209.304 257.522 C 212.586 257.522 215.114 256.934 216.871 255.75 C 218.628 254.565 219.94 253.246 220.809 251.791 L 221.909 251.791 L 221.909 256.568 L 228.82 256.568 L 228.839 256.559 Z M 221.851 240.042 C 221.851 243.683 220.857 246.485 218.869 248.44 C 216.881 250.395 214.361 251.377 211.302 251.377 C 208.242 251.377 205.79 250.395 203.802 248.44 C 201.814 246.485 200.82 243.683 200.82 240.042 L 200.82 239.426 C 200.82 235.834 201.814 233.06 203.802 231.095 C 205.79 229.14 208.29 228.158 211.302 228.158 C 214.313 228.158 216.939 229.14 218.898 231.095 C 220.857 233.05 221.842 235.824 221.842 239.426 L 221.842 240.042 L 221.851 240.042 Z" fill="currentColor" fill-rule="nonzero"></path>
  <path d="M 98.383 273.306 C 92.543 273.306 87.91 274.953 84.484 278.256 C 81.058 281.56 79.349 286.317 79.349 292.558 L 79.349 303.748 C 79.349 307.89 80.121 311.395 81.675 314.255 C 83.229 317.125 85.353 319.292 88.046 320.775 C 90.739 322.249 93.798 322.99 97.225 322.99 C 99.686 322.99 101.665 322.692 103.151 322.104 C 104.637 321.517 105.776 320.766 106.577 319.851 C 107.379 318.945 107.977 318.05 108.392 317.193 L 109.492 317.193 L 109.492 322.037 L 116.336 322.037 L 116.336 298.423 L 96.134 298.423 L 96.134 304.769 L 109.01 304.769 L 109.01 305.655 C 109.01 308.843 108.16 311.434 106.481 313.437 C 104.792 315.44 102.118 316.442 98.47 316.442 C 94.821 316.442 91.897 315.315 89.841 313.061 C 87.785 310.808 86.762 307.745 86.762 303.883 L 86.762 292.423 C 86.762 288.513 87.785 285.45 89.841 283.245 C 91.897 281.04 94.744 279.932 98.402 279.932 C 100.825 279.932 102.804 280.385 104.358 281.3 C 105.912 282.214 107.07 283.447 107.852 285.017 C 108.624 286.587 109.019 288.349 109.019 290.304 L 109.019 290.853 L 116.345 290.853 L 116.345 290.516 C 116.345 285.287 114.791 281.107 111.693 277.996 C 108.585 274.876 104.164 273.325 98.412 273.325 L 98.383 273.306 Z" fill="currentColor" fill-rule="nonzero"></path>
  <path d="M 150.629 305.386 C 150.629 309.026 149.751 311.809 147.994 313.745 C 146.238 315.681 143.921 316.644 141.045 316.644 C 138.439 316.644 136.412 315.95 134.954 314.564 C 133.497 313.177 132.763 311.029 132.763 308.111 L 132.763 288.388 L 125.708 288.388 L 125.708 308.583 C 125.708 311.491 126.277 313.995 127.416 316.095 C 128.555 318.185 130.128 319.803 132.136 320.939 C 134.144 322.075 136.422 322.644 138.979 322.644 C 142.174 322.644 144.597 322.037 146.238 320.833 C 147.878 319.629 149.017 318.339 149.664 316.981 L 150.764 316.981 L 150.764 322.027 L 157.675 322.027 L 157.675 288.388 L 150.62 288.388 L 150.62 305.376 L 150.629 305.386 Z" fill="currentColor" fill-rule="nonzero"></path>
  <path d="M 175.145 288.388 L 168.09 288.388 L 168.09 322.027 L 175.145 322.027 L 175.145 288.388 Z" fill="currentColor" fill-rule="nonzero"></path>
  <path d="M 171.651 274.269 C 170.281 274.269 169.132 274.712 168.196 275.598 C 167.26 276.484 166.796 277.63 166.796 279.046 C 166.796 280.462 167.26 281.608 168.196 282.494 C 169.132 283.38 170.281 283.823 171.651 283.823 C 173.022 283.823 174.228 283.38 175.145 282.494 C 176.062 281.608 176.516 280.462 176.516 279.046 C 176.516 277.63 176.062 276.484 175.145 275.598 C 174.228 274.712 173.07 274.269 171.651 274.269 Z" fill="currentColor" fill-rule="nonzero"></path>
  <path d="M 212.045 292.962 L 210.954 292.962 C 210.452 292.057 209.719 291.181 208.763 290.333 C 207.808 289.495 206.582 288.802 205.105 288.253 C 203.619 287.704 201.785 287.434 199.594 287.434 C 196.766 287.434 194.16 288.118 191.785 289.486 C 189.411 290.853 187.519 292.827 186.1 295.418 C 184.682 298.009 183.977 301.11 183.977 304.702 L 183.977 305.723 C 183.977 309.363 184.691 312.464 186.129 315.035 C 187.568 317.607 189.469 319.572 191.843 320.939 C 194.218 322.307 196.795 322.99 199.584 322.99 C 202.866 322.99 205.395 322.403 207.151 321.218 C 208.908 320.034 210.221 318.714 211.089 317.26 L 212.18 317.26 L 212.18 322.037 L 219.091 322.037 L 219.091 274.269 L 212.035 274.269 L 212.035 292.972 L 212.045 292.962 Z M 212.113 305.52 C 212.113 309.161 211.118 311.963 209.13 313.918 C 207.142 315.873 204.623 316.856 201.563 316.856 C 198.503 316.856 196.052 315.873 194.063 313.918 C 192.075 311.963 191.081 309.161 191.081 305.52 L 191.081 304.904 C 191.081 301.312 192.075 298.538 194.063 296.574 C 196.052 294.619 198.551 293.636 201.563 293.636 C 204.574 293.636 207.2 294.619 209.159 296.574 C 211.118 298.529 212.103 301.302 212.103 304.904 L 212.103 305.52 L 212.113 305.52 Z" fill="currentColor" fill-rule="nonzero"></path>
  <path d="M 261 304.5 C 261 301.09 260.315 298.105 258.944 295.562 C 257.574 293.01 255.672 291.026 253.23 289.592 C 250.788 288.157 247.95 287.444 244.707 287.444 C 241.464 287.444 238.443 288.157 235.905 289.592 C 233.376 291.026 231.397 293.049 229.978 295.668 C 228.56 298.288 227.855 301.341 227.855 304.846 L 227.855 305.665 C 227.855 309.122 228.569 312.156 230.007 314.775 C 231.446 317.395 233.443 319.417 236.001 320.852 C 238.559 322.287 241.551 323 244.968 323 C 248.028 323 250.537 322.518 252.497 321.565 C 254.456 320.612 256.049 319.427 257.255 318.021 C 258.462 316.615 259.388 315.267 260.025 313.995 L 254.205 310.991 C 253.471 312.541 252.439 313.899 251.087 315.084 C 249.736 316.268 247.748 316.856 245.093 316.856 C 242.265 316.856 239.901 315.979 238.009 314.227 C 236.117 312.474 235.123 310.124 235.026 307.167 L 260.981 307.167 L 260.981 304.509 L 261 304.5 Z M 235.123 301.774 C 235.49 299.222 236.503 297.238 238.173 295.803 C 239.843 294.368 241.995 293.656 244.64 293.656 C 247.285 293.656 249.437 294.368 251.078 295.803 C 252.719 297.238 253.636 299.232 253.819 301.774 L 235.123 301.774 Z" fill="currentColor" fill-rule="nonzero"></path>
</svg>